<?xml version="1.0" standalone="no"?>
<!DOCTYPE svg PUBLIC "-//W3C//DTD SVG 20010904//EN"
 "http://www.w3.org/TR/2001/REC-SVG-20010904/DTD/svg10.dtd">
<svg version="1.0" xmlns="http://www.w3.org/2000/svg"
 width="1024.000000pt" height="1024.000000pt" viewBox="0 0 1024.000000 1024.000000"
 preserveAspectRatio="xMidYMid meet">
<metadata>
Created by potrace 1.11, written by Peter Selinger 2001-2013
</metadata>
<g transform="translate(0.000000,1024.000000) scale(0.100000,-0.100000)"
fill="#000000" stroke="none">
<path d="M0 5120 l0 -5120 5120 0 5120 0 0 5120 0 5120 -5120 0 -5120 0 0
-5120z m6301 3820 c100 -50 289 -166 376 -229 34 -25 87 -64 117 -85 31 -22
56 -43 56 -48 0 -4 7 -8 15 -8 7 0 18 -6 22 -12 4 -7 31 -31 58 -53 71 -56 98
-81 183 -160 113 -106 201 -198 316 -329 69 -80 79 -91 96 -116 8 -12 22 -30
30 -40 38 -46 47 -58 75 -100 16 -25 55 -81 87 -126 32 -44 58 -84 58 -89 0
-4 10 -22 23 -39 13 -17 27 -38 30 -46 4 -8 16 -28 26 -45 47 -72 218 -400
280 -536 79 -174 180 -570 211 -834 26 -217 31 -245 41 -245 7 0 4 224 -5 363
-3 31 -3 57 -1 57 10 0 51 -200 60 -288 2 -19 6 -37 10 -40 10 -10 -2 324 -15
428 -6 47 -13 103 -15 125 -3 22 -10 69 -15 105 -18 120 -18 130 -9 136 5 3 7
9 4 13 -2 5 -7 27 -10 51 -3 23 -7 45 -10 49 -5 9 -17 70 -19 94 0 9 -4 17 -8
17 -4 0 -8 8 -8 18 0 10 -11 51 -24 90 -14 40 -23 72 -20 72 3 0 2 6 -3 13 -4
6 -8 19 -10 27 -1 9 -10 34 -19 55 -10 22 -19 43 -20 48 -1 4 -3 9 -4 12 -1 3
-3 8 -5 13 -1 4 -5 15 -9 24 -4 9 -9 22 -10 30 -2 7 -8 24 -14 38 -16 38 -29
74 -32 85 -1 6 -9 19 -16 30 -8 11 -14 26 -14 33 0 8 -9 27 -21 43 -11 16 -18
29 -14 29 3 0 -9 28 -26 63 -17 34 -36 70 -40 80 -5 9 -6 17 -1 17 4 0 14 -8
22 -17 22 -26 80 -119 80 -127 0 -5 9 -20 20 -35 43 -61 268 -529 310 -646 51
-143 110 -349 125 -435 3 -19 14 -80 25 -135 33 -172 51 -370 57 -655 3 -151
10 -279 15 -285 6 -7 9 -7 7 0 -5 19 13 75 23 75 26 0 -10 -388 -58 -625 -32
-157 -137 -570 -162 -635 -19 -52 -23 -80 -10 -80 18 0 106 185 172 359 80
211 138 413 180 626 61 314 77 474 90 903 2 51 6 95 9 98 5 6 27 -59 27 -81 0
-23 22 -85 29 -85 4 0 13 10 18 23 11 22 11 22 24 -8 20 -45 17 -395 -5 -560
-28 -215 -111 -624 -177 -875 -50 -191 -214 -557 -310 -692 -10 -14 -19 -29
-19 -33 0 -16 -243 -366 -285 -411 -5 -6 -21 -26 -35 -44 -14 -18 -33 -42 -43
-54 -11 -11 -35 -41 -55 -65 -58 -68 -105 -122 -129 -147 -13 -13 -23 -26 -23
-29 0 -9 -214 -219 -255 -250 -22 -17 -47 -38 -55 -47 -19 -21 -267 -198 -278
-198 -5 0 -26 -13 -48 -30 -21 -16 -43 -30 -47 -30 -5 0 -21 -8 -35 -19 -26
-17 -90 -54 -194 -110 -27 -14 -48 -29 -48 -33 0 -10 17 -10 24 0 3 4 28 14
55 22 28 7 51 17 51 22 0 4 7 8 16 8 17 0 214 94 254 121 14 9 62 36 108 59
45 23 82 46 82 52 0 5 4 7 8 4 4 -2 28 11 52 30 24 19 59 42 77 51 18 8 33 19
33 24 0 5 4 9 10 9 5 0 44 22 86 50 42 27 83 50 90 50 8 0 14 4 14 9 0 5 6 9
13 8 31 -1 48 4 43 12 -3 5 5 12 19 15 14 4 25 11 25 16 0 6 7 10 15 10 9 0
18 7 21 15 4 8 11 15 18 15 6 0 19 8 27 18 9 9 26 24 39 32 35 23 124 100 228
198 37 34 68 58 70 52 5 -14 -13 -41 -113 -164 -47 -58 -85 -110 -85 -115 0
-6 13 -2 29 7 16 9 28 18 26 21 -3 2 15 16 38 31 23 15 60 43 81 63 22 21 44
37 48 37 11 0 -14 -48 -39 -75 -10 -12 -47 -54 -82 -95 -195 -226 -493 -490
-662 -586 -10 -6 -27 -18 -36 -26 -10 -8 -25 -18 -33 -22 -8 -3 -28 -15 -45
-26 -96 -62 -464 -250 -490 -250 -2 0 -28 -11 -57 -24 -213 -97 -674 -215
-978 -251 -190 -22 -583 -25 -740 -6 -52 7 -189 16 -305 21 -115 4 -241 11
-280 14 l-70 6 60 -30 c40 -20 50 -28 30 -24 -65 13 -196 47 -308 81 -188 55
-165 34 63 -57 219 -88 547 -169 830 -205 239 -30 602 -30 860 0 161 19 225
30 420 70 141 29 468 116 492 131 5 3 16 7 25 9 21 4 382 143 397 153 6 4 13
7 16 8 8 1 81 34 130 57 25 12 47 22 50 23 5 1 32 12 95 40 22 10 42 18 45 19
3 0 12 5 20 10 8 5 20 10 26 11 6 1 29 10 50 19 22 9 50 22 64 28 14 6 28 13
33 15 4 2 7 -2 7 -7 0 -11 -113 -99 -140 -109 -8 -3 -28 -14 -43 -25 -68 -47
-355 -191 -497 -250 -121 -49 -292 -115 -325 -124 -5 -1 -82 -23 -170 -48 -88
-25 -171 -48 -185 -50 -14 -3 -35 -7 -47 -10 -13 -3 -33 -7 -45 -10 -27 -6
-41 -9 -163 -30 -49 -8 -112 -18 -140 -21 -27 -3 -59 -7 -70 -9 -11 -2 -63 -7
-115 -10 -52 -3 -115 -8 -140 -11 -86 -9 -555 -5 -680 6 -184 15 -466 53 -579
76 -22 5 -23 4 -10 -12 13 -16 11 -17 -26 -10 -69 12 -294 77 -407 117 -287
102 -490 205 -803 404 -104 67 -144 87 -168 83 -62 -9 1 -85 193 -234 76 -59
255 -184 264 -184 3 0 28 -16 55 -35 26 -19 53 -35 58 -35 5 0 15 -6 21 -12
14 -14 100 -62 245 -138 54 -27 105 -55 115 -60 19 -10 210 -101 317 -150 60
-27 146 -62 285 -115 131 -50 153 -60 133 -63 -40 -6 -418 72 -543 112 -241
77 -626 271 -855 431 -112 78 -280 199 -285 205 -3 4 -26 21 -52 39 -39 26
-48 29 -48 15 0 -10 3 -14 6 -11 7 6 44 -35 44 -48 0 -10 -62 28 -101 62 -202
174 -365 345 -508 535 -116 155 -131 175 -131 182 0 4 -18 31 -40 61 -36 48
-54 78 -97 155 -8 14 -23 39 -33 55 -11 17 -33 57 -50 90 -17 33 -47 89 -66
125 -19 35 -37 74 -40 85 -4 11 -19 47 -34 80 -16 33 -48 112 -73 175 -25 63
-51 129 -58 145 -7 17 -13 32 -14 35 -16 59 -41 120 -47 120 -5 0 -7 4 -4 9 4
5 -6 53 -20 108 -31 114 -29 105 -39 166 -4 26 -12 47 -17 47 -5 0 -7 4 -4 9
11 16 -6 71 -21 71 -14 0 -14 -46 2 -165 2 -11 6 -42 9 -70 7 -48 11 -76 20
-120 3 -11 14 -65 25 -120 11 -55 25 -116 31 -135 6 -19 13 -47 15 -61 4 -29
29 -113 51 -172 8 -20 13 -41 12 -45 -1 -4 3 -18 9 -32 6 -14 19 -52 29 -85
10 -33 21 -62 24 -65 3 -3 5 -23 6 -45 1 -42 20 -113 35 -129 5 -6 9 -16 9
-23 0 -7 16 -48 36 -91 20 -42 41 -88 47 -102 6 -14 18 -33 26 -42 8 -10 12
-18 8 -18 -5 0 12 -34 68 -135 65 -117 75 -137 75 -150 0 -7 6 -15 13 -18 6
-2 9 -7 6 -11 -7 -7 -99 103 -151 179 -64 93 -106 123 -78 55 28 -67 -25 -34
-61 39 -8 14 -26 45 -41 68 -35 52 -121 210 -154 283 -14 30 -35 73 -46 95
-23 45 -96 216 -135 315 -60 156 -123 376 -148 525 -50 286 -65 478 -60 745 8
381 50 648 174 1100 11 41 19 76 17 77 -1 2 -11 -14 -22 -34 -22 -42 -50 -59
-41 -24 7 27 -4 26 -24 -2 -21 -30 -115 -273 -143 -369 -24 -83 -38 -84 -30
-2 9 90 -7 78 -40 -29 -47 -149 -96 -386 -121 -577 -3 -25 -8 -56 -10 -70 -5
-26 -20 -230 -30 -400 -3 -52 -8 -115 -10 -140 -3 -25 -7 -70 -10 -100 -10
-101 -17 -155 -22 -163 -16 -27 -57 102 -88 278 -30 165 -25 475 10 715 2 14
6 45 10 70 16 112 59 327 90 450 33 133 130 445 144 465 4 6 16 33 26 60 47
127 124 286 240 490 34 60 225 358 234 365 17 14 191 287 191 300 0 6 5 10 11
10 6 0 30 21 52 47 72 81 188 187 358 328 128 106 331 234 594 376 44 23 132
77 195 118 63 42 122 79 130 83 26 12 0 9 -64 -8 -33 -9 -66 -20 -72 -25 -7
-5 -16 -9 -20 -8 -5 1 -22 -3 -37 -9 -16 -7 -34 -12 -42 -12 -8 0 -16 -4 -20
-9 -3 -5 -19 -12 -35 -16 -17 -4 -43 -13 -58 -20 -37 -18 -110 -49 -162 -69
-8 -3 -22 -10 -30 -15 -8 -5 -22 -12 -30 -15 -8 -3 -22 -10 -30 -14 -18 -11
-45 -25 -127 -68 -34 -18 -76 -42 -92 -53 -16 -12 -35 -21 -43 -21 -7 0 -26
-12 -43 -26 -16 -14 -50 -38 -75 -52 -25 -15 -51 -32 -58 -39 -7 -7 -17 -13
-21 -13 -7 0 -22 -11 -68 -50 -7 -5 -16 -10 -22 -10 -5 0 -11 -3 -13 -7 -1 -5
-50 -44 -108 -88 -58 -43 -109 -83 -115 -87 -5 -5 -21 -17 -34 -28 -13 -11
-26 -18 -29 -16 -8 9 28 50 154 178 76 76 121 128 111 128 -9 0 -17 -3 -17 -7
0 -5 -20 -17 -45 -28 -25 -11 -45 -23 -45 -27 0 -5 -6 -8 -14 -8 -8 0 -22 -7
-30 -16 -9 -8 -21 -12 -27 -8 -8 4 -9 3 -5 -4 5 -8 -3 -12 -24 -12 -20 0 -29
-4 -25 -11 4 -6 1 -9 -6 -8 -18 4 -59 -10 -59 -20 0 -4 -12 -13 -27 -20 -16
-7 -35 -19 -43 -26 -8 -8 -35 -32 -59 -55 -24 -22 -47 -40 -51 -40 -5 0 -10
-4 -12 -8 -5 -13 -69 -54 -75 -49 -8 9 249 263 347 343 47 38 87 72 88 77 2 4
8 7 13 7 6 0 21 10 34 23 34 31 48 42 65 50 8 4 56 36 105 71 171 123 315 208
520 308 167 82 236 114 265 123 3 1 21 8 40 17 32 14 105 40 123 44 4 1 9 3
12 4 3 1 8 3 13 4 4 1 60 19 125 40 64 20 127 39 139 41 11 3 35 9 52 15 17 5
54 14 81 20 28 5 61 12 75 15 128 27 269 50 370 60 36 3 101 10 145 15 87 9
674 6 716 -4 42 -10 290 -36 334 -35 39 1 38 1 -25 20 -36 11 -114 33 -175 49
l-110 29 75 -6 c90 -7 304 -50 453 -91 59 -17 107 -29 107 -26 0 10 -198 80
-331 118 -61 17 -267 63 -327 72 -20 3 -40 8 -43 10 -7 4 -205 30 -314 41
-161 16 -756 7 -846 -13 -13 -3 -42 -7 -64 -8 -52 -4 -208 -27 -215 -31 -3 -2
-22 -6 -42 -9 -21 -3 -59 -11 -85 -17 -56 -13 -80 -18 -110 -23 -13 -3 -26 -7
-31 -10 -5 -3 -23 -8 -40 -11 -18 -3 -89 -24 -159 -47 -71 -23 -132 -43 -138
-44 -16 -3 -266 -100 -310 -120 -22 -10 -42 -18 -45 -19 -12 -4 -87 -36 -115
-50 -25 -12 -75 -33 -95 -40 -15 -5 -108 -47 -123 -56 -21 -12 -33 -6 -22 11
7 11 138 100 148 100 4 0 35 17 69 38 91 55 355 180 428 202 14 5 63 23 110
40 47 18 91 32 98 33 6 0 12 4 12 9 0 4 3 7 8 6 4 -1 45 10 92 24 348 110 692
182 990 208 151 14 597 13 730 0 450 -46 794 -147 1210 -354 146 -73 443 -248
478 -283 7 -7 17 -13 21 -13 4 0 16 -8 27 -18 10 -9 32 -25 47 -35 16 -10 38
-27 50 -37 12 -10 69 -56 127 -101 107 -85 134 -108 225 -189 97 -88 126 -110
136 -104 6 4 6 11 -2 20 -13 16 -4 48 11 39 5 -3 10 -1 10 4 0 6 -6 11 -14 11
-9 0 -12 7 -9 20 3 11 0 20 -6 20 -6 0 -11 5 -11 11 0 7 -16 34 -35 60 -19 27
-35 53 -35 57 0 4 -9 14 -19 22 -22 15 -19 32 4 24 7 -3 55 -46 105 -95 50
-49 95 -89 100 -89 6 0 10 9 10 21 0 11 -4 17 -10 14 -5 -3 -10 0 -10 7 0 39
-284 347 -444 483 -33 28 -67 57 -76 65 -24 24 -329 250 -336 250 -3 0 -28 17
-54 38 -45 34 -272 195 -308 217 -20 12 -41 37 -42 48 0 5 4 6 9 2 5 -3 12 -1
16 5 4 6 12 5 21 -5 9 -8 24 -15 35 -15 19 0 19 1 5 16 -9 8 -16 22 -16 29 0
18 16 12 131 -45z m-5014 -5096 c-3 -3 -12 -4 -19 -1 -8 3 -5 6 6 6 11 1 17
-2 13 -5z"/>
<path d="M4255 8793 c-197 -10 -562 -68 -720 -113 -16 -5 -50 -14 -75 -20 -79
-20 -210 -62 -210 -67 0 -3 12 -2 28 2 31 8 54 13 96 21 16 2 33 7 38 10 5 3
21 8 36 11 42 8 57 11 57 13 0 1 11 3 25 5 43 6 94 14 120 20 14 3 43 7 65 11
22 3 47 7 55 9 57 17 335 37 545 40 352 5 530 -12 900 -86 83 -17 168 -32 191
-33 22 -2 51 -7 64 -11 23 -7 23 -7 7 9 -26 26 -21 35 16 26 145 -35 287 -76
405 -115 7 -3 10 0 7 5 -3 6 1 10 10 10 9 0 14 -4 10 -9 -3 -5 0 -13 6 -17 8
-5 9 -3 4 6 -6 10 1 12 36 6 124 -20 -137 87 -373 153 -109 30 -138 35 -428
71 -338 43 -652 57 -915 43z m1195 -153 c0 -5 -4 -10 -10 -10 -5 0 -10 5 -10
10 0 6 5 10 10 10 6 0 10 -4 10 -10z"/>
<path d="M5520 8590 c8 -5 22 -9 30 -9 10 0 8 3 -5 9 -27 12 -43 12 -25 0z"/>
<path d="M6050 8499 c0 -5 5 -7 10 -4 6 3 10 8 10 11 0 2 -4 4 -10 4 -5 0 -10
-5 -10 -11z"/>
<path d="M7017 8371 c12 -10 19 -21 16 -25 -4 -3 -1 -6 5 -6 6 0 23 -20 38
-45 14 -25 30 -45 36 -45 5 0 6 -4 3 -10 -3 -5 -2 -10 2 -10 13 0 33 22 33 36
0 19 -73 85 -88 79 -7 -3 -11 -1 -8 4 7 10 -10 25 -39 34 -18 7 -18 6 2 -12z"/>
<path d="M3598 8333 c7 -3 16 -2 19 1 4 3 -2 6 -13 5 -11 0 -14 -3 -6 -6z"/>
<path d="M4935 8324 c-27 -2 -99 -9 -160 -15 -595 -60 -1173 -297 -1658 -681
-131 -104 -401 -374 -504 -505 -336 -423 -568 -936 -652 -1440 -37 -219 -45
-317 -45 -553 0 -393 45 -687 161 -1030 225 -668 674 -1255 1258 -1645 680
-454 1456 -625 2289 -504 332 48 716 178 1030 350 528 288 975 733 1269 1260
185 331 306 677 362 1037 54 340 55 681 5 1022 -77 527 -313 1062 -662 1503
-104 131 -374 401 -505 505 -471 373 -1032 608 -1614 677 -130 15 -474 27
-574 19z m1059 -1895 c10 -50 7 -1378 -4 -1559 -23 -389 -115 -644 -302 -827
-87 -87 -118 -108 -233 -164 -106 -50 -210 -81 -338 -98 -89 -12 -867 -15
-867 -3 1 4 78 160 173 347 l172 340 235 7 c191 5 250 10 314 27 163 43 240
120 283 283 14 56 17 159 20 871 l4 807 268 0 269 0 6 -31z"/>
<path d="M3478 8303 c-10 -2 -18 -9 -18 -14 0 -6 7 -6 18 -1 9 5 24 12 32 15
13 5 13 5 0 5 -8 0 -23 -2 -32 -5z"/>
<path d="M3373 8265 c-18 -8 -33 -17 -33 -20 0 -5 70 21 79 30 9 9 -14 4 -46
-10z"/>
<path d="M7152 8248 c-18 -18 -15 -38 10 -59 11 -11 18 -19 15 -19 -4 0 7 -15
24 -32 41 -44 71 -78 159 -178 97 -109 92 -103 115 -135 40 -55 105 -140 118
-155 21 -23 81 -112 97 -143 8 -16 23 -39 35 -51 11 -12 21 -25 22 -30 1 -4 5
-11 9 -14 4 -4 4 -1 0 6 -4 6 -3 12 3 12 5 0 11 -6 14 -12 3 -10 8 -9 23 2 17
13 18 13 8 0 -12 -17 -11 -25 4 -62 12 -29 26 -40 16 -13 -5 11 -2 13 10 9 22
-8 20 0 -11 54 -14 26 -31 56 -37 67 -38 72 -207 311 -300 425 -93 114 -304
340 -318 340 -2 0 -9 -5 -16 -12z"/>
<path d="M3310 8243 c-8 -2 -22 -7 -30 -10 -8 -4 -17 -7 -20 -8 -3 -1 -21 -8
-41 -17 -20 -9 -47 -19 -60 -23 -50 -16 -317 -149 -381 -191 -70 -45 -91 -66
-38 -39 17 9 30 12 30 8 0 -4 5 -2 12 5 15 15 64 16 73 2 8 -12 45 -13 45 -1
0 4 -9 21 -21 37 l-21 29 27 -29 c29 -31 48 -31 120 0 22 10 42 18 45 19 33 7
94 33 129 57 24 16 50 27 57 24 8 -3 13 0 11 7 -1 7 5 11 13 9 8 -2 12 0 8 4
-5 4 1 14 12 21 27 19 15 36 -21 29 -49 -10 -40 10 16 35 30 13 55 27 55 32 0
4 -1 7 -2 6 -2 0 -10 -3 -18 -6z"/>
<path d="M3095 7999 c-4 -6 -5 -12 -2 -15 2 -3 7 2 10 11 7 17 1 20 -8 4z"/>
<path d="M2955 7925 c-55 -29 -118 -63 -140 -75 -49 -26 -116 -80 -95 -76 8 1
31 11 50 21 19 11 38 18 41 17 4 0 15 8 24 18 10 11 24 20 30 20 7 0 42 16 79
35 37 19 72 33 77 29 5 -3 9 -1 9 4 0 6 14 15 30 21 17 5 30 15 30 20 0 6 -7
7 -17 4 -11 -4 -14 -3 -9 5 12 20 -5 13 -109 -43z"/>
<path d="M7850 7346 c0 -7 6 -19 14 -25 8 -7 17 -23 20 -37 4 -14 11 -22 16
-19 4 3 -3 25 -17 50 -26 47 -33 54 -33 31z"/>
<path d="M7916 7228 c3 -13 13 -34 20 -48 19 -36 18 -1 -2 38 -18 37 -28 42
-18 10z"/>
<path d="M2080 6893 c0 -5 -10 -20 -23 -35 -62 -73 -60 -70 -46 -80 11 -8 10
-9 -3 -4 -11 3 -21 -2 -28 -14 -5 -10 -16 -24 -23 -32 -7 -7 -37 -49 -67 -93
-29 -44 -57 -81 -62 -83 -4 -2 -8 -8 -8 -13 0 -6 -16 -35 -36 -66 -193 -302
-333 -633 -460 -1088 -16 -59 -80 -378 -90 -450 -4 -27 -8 -59 -10 -70 -32
-164 -20 -668 16 -690 10 -6 28 76 35 165 2 36 9 90 14 120 6 30 24 145 42
255 71 454 191 889 324 1178 13 28 22 54 19 59 -3 4 -1 8 4 8 4 0 27 37 50 83
71 142 81 186 15 72 -20 -35 -39 -63 -41 -61 -5 6 65 210 92 266 13 27 19 47
13 44 -7 -3 -5 0 3 8 9 7 15 20 15 28 -1 8 4 30 12 49 7 18 10 38 6 44 -3 6
-1 7 5 3 7 -4 22 17 40 56 16 35 39 74 51 87 11 13 21 27 21 32 0 4 28 47 63
95 53 75 80 134 61 134 -2 0 -4 -3 -4 -7z m-9 -46 c-10 -9 -11 -8 -5 6 3 10 9
15 12 12 3 -3 0 -11 -7 -18z m-465 -875 c-10 -2 -22 0 -28 6 -6 6 0 7 19 4 21
-5 23 -7 9 -10z m51 -8 c-3 -3 -12 -4 -19 -1 -8 3 -5 6 6 6 11 1 17 -2 13 -5z"/>
<path d="M2100 6879 c0 -5 5 -7 10 -4 6 3 10 8 10 11 0 2 -4 4 -10 4 -5 0 -10
-5 -10 -11z"/>
<path d="M8445 6802 c4 -13 9 -34 11 -45 1 -12 17 -94 33 -182 17 -88 33 -185
36 -215 4 -30 8 -62 10 -70 2 -8 7 -51 11 -95 3 -44 8 -88 10 -98 1 -10 4 -43
5 -75 2 -69 7 -79 24 -55 11 15 14 10 20 -42 3 -33 8 -73 10 -90 2 -16 7 -84
11 -150 4 -66 8 -127 10 -135 1 -8 3 -82 5 -165 2 -141 2 -146 11 -80 12 87
15 477 5 565 -10 82 -36 260 -42 280 -2 8 -6 33 -10 55 -10 70 -17 110 -23
119 -3 5 -6 24 -8 43 -7 74 -101 410 -125 443 -8 12 -9 10 -4 -8z"/>
<path d="M8921 5208 c-5 -18 -20 -73 -31 -123 -74 -314 -168 -597 -282 -855
-29 -65 -134 -277 -164 -330 -40 -72 -68 -124 -70 -132 -1 -5 -2 -13 -3 -19 0
-5 -5 -7 -11 -4 -6 4 -7 -1 -3 -11 4 -12 3 -15 -6 -10 -6 4 -10 4 -9 -1 1 -4
-2 -19 -6 -32 -6 -16 -4 -26 5 -33 12 -8 11 -9 -1 -6 -17 5 -55 -37 -70 -77
-6 -15 -13 -25 -17 -22 -3 4 -12 -5 -20 -19 -10 -21 -11 -30 -1 -41 10 -12 9
-18 -7 -29 -10 -8 -15 -14 -11 -14 4 0 -4 -21 -19 -47 -30 -56 -17 -44 54 47
28 36 55 70 61 77 36 43 128 198 155 262 18 42 51 113 74 159 23 45 38 82 35
82 -4 0 1 9 10 19 10 11 19 25 20 33 1 7 8 24 16 38 69 121 194 449 253 665
28 100 66 279 66 310 1 158 0 168 -18 113z m-661 -1687 c0 -6 -4 -12 -8 -15
-5 -3 -9 1 -9 9 0 8 4 15 9 15 4 0 8 -4 8 -9z"/>
<path d="M8631 5204 c0 -11 3 -14 6 -6 3 7 2 16 -1 19 -3 4 -6 -2 -5 -13z"/>
<path d="M1652 4400 c0 -14 2 -19 5 -12 2 6 2 18 0 25 -3 6 -5 1 -5 -13z"/>
<path d="M1655 4325 c3 -27 7 -81 10 -120 3 -38 7 -79 10 -90 2 -11 4 -24 4
-30 1 -6 4 -6 10 0 6 6 4 55 -5 125 -16 123 -37 207 -29 115z"/>
<path d="M1895 4193 c3 -40 4 -43 15 -43 6 0 8 11 4 28 -9 38 -21 48 -19 15z"/>
<path d="M8490 4098 c0 -19 2 -20 10 -8 13 19 13 30 0 30 -5 0 -10 -10 -10
-22z"/>
<path d="M1680 4050 c0 -12 7 -20 18 -21 10 0 12 -3 5 -6 -14 -5 -18 -33 -5
-33 21 0 29 22 19 51 -13 33 -37 39 -37 9z"/>
<path d="M1713 3980 l-21 -9 28 -135 c16 -75 34 -153 41 -174 7 -20 13 -41 14
-47 0 -5 9 -37 19 -70 10 -33 19 -67 21 -75 2 -8 15 -40 29 -70 23 -50 25 -52
21 -20 -2 19 -8 36 -13 38 -4 1 -7 16 -6 32 1 17 -1 30 -5 30 -4 0 -7 8 -7 18
0 9 -3 43 -8 75 -6 40 -13 57 -23 57 -13 0 -13 3 -3 15 7 9 10 27 6 45 -7 39
1 38 17 -1 12 -30 14 -31 29 -15 16 16 14 51 -2 41 -4 -2 -14 19 -23 48 -72
245 -67 236 -114 217z"/>
<path d="M1851 3651 c-11 -7 -10 -18 3 -65 9 -31 23 -59 31 -62 7 -3 11 -12 8
-20 -7 -18 4 -47 16 -40 5 4 4 27 -4 56 -7 28 -13 53 -13 55 0 22 -15 85 -20
85 -4 0 -13 -4 -21 -9z"/>
<path d="M1910 3431 c0 -10 6 -23 13 -30 11 -8 13 -5 9 19 -5 33 -22 41 -22
11z"/>
<path d="M7895 2697 c-10 -7 -25 -18 -33 -24 -7 -7 -19 -13 -26 -13 -7 0 -20
-8 -29 -18 -13 -15 -14 -21 -4 -32 10 -12 9 -12 -6 -1 -15 12 -25 10 -69 -14
-101 -55 -201 -120 -206 -133 -3 -11 0 -12 16 -3 11 6 26 11 33 11 13 0 -27
-31 -115 -87 -173 -112 -241 -159 -244 -172 -4 -10 0 -12 14 -6 11 4 25 8 32
8 7 0 11 7 7 16 -2 9 9 1 25 -18 l30 -35 32 17 c18 9 51 28 73 42 22 14 47 28
55 32 55 26 373 253 365 261 -7 7 -76 -24 -140 -62 -33 -20 -71 -40 -85 -43
-14 -3 -37 -15 -52 -26 -15 -12 -30 -18 -33 -16 -3 3 12 19 34 35 21 16 90 68
153 116 122 92 220 177 203 177 -5 0 -19 -6 -30 -12z"/>
<path d="M2820 2477 c0 -13 20 -47 41 -68 21 -21 29 -24 29 -10 0 11 -69 89
-70 78z"/>
<path d="M7476 2451 c-4 -5 3 -7 14 -4 23 6 26 13 6 13 -8 0 -17 -4 -20 -9z"/>
<path d="M2896 2382 c-19 -31 331 -376 459 -452 l40 -24 -47 45 c-25 24 -101
96 -168 159 -119 112 -155 148 -238 238 -22 24 -43 39 -46 34z"/>
<path d="M7240 2173 c-121 -67 -262 -137 -327 -163 -39 -16 -89 -38 -110 -50
-36 -20 -36 -21 -8 -15 83 17 493 197 509 223 3 5 0 14 -7 20 -8 6 -26 2 -57
-15z"/>
<path d="M4370 1700 c-9 -6 -10 -10 -3 -10 6 0 15 5 18 10 8 12 4 12 -15 0z"/>
<path d="M4395 1690 c-3 -6 1 -7 9 -4 18 7 21 14 7 14 -6 0 -13 -4 -16 -10z"/>
<path d="M4450 1670 c0 -5 7 -7 15 -4 8 4 15 8 15 10 0 2 -7 4 -15 4 -8 0 -15
-4 -15 -10z"/>
<path d="M4485 1661 c-6 -11 141 -58 296 -96 57 -14 107 -25 112 -25 4 0 7 13
7 29 0 27 -3 30 -67 45 -77 19 -78 19 -116 34 -34 14 -50 15 -42 3 12 -21 -19
-21 -95 -2 -92 24 -87 24 -95 12z"/>
<path d="M4916 1578 c-3 -17 -3 -35 1 -39 13 -12 231 -40 353 -45 167 -7 132
6 -273 102 -76 18 -74 19 -81 -18z"/>
</g>
</svg>
