<?xml version="1.0" standalone="no"?>
<!DOCTYPE svg PUBLIC "-//W3C//DTD SVG 20010904//EN"
 "http://www.w3.org/TR/2001/REC-SVG-20010904/DTD/svg10.dtd">
<svg version="1.0" xmlns="http://www.w3.org/2000/svg"
 width="1024.000000pt" height="1024.000000pt" viewBox="0 0 1024.000000 1024.000000"
 preserveAspectRatio="xMidYMid meet">
<metadata>
Created by potrace 1.11, written by Peter Selinger 2001-2013
</metadata>
<g transform="translate(0.000000,1024.000000) scale(0.100000,-0.100000)"
fill="#000000" stroke="none">
<path d="M0 5120 l0 -5120 5120 0 5120 0 0 5120 0 5120 -5120 0 -5120 0 0
-5120z m6400 3757 c89 -48 195 -114 288 -179 37 -26 76 -53 86 -60 11 -7 26
-20 35 -28 9 -8 44 -37 79 -64 35 -26 74 -58 87 -70 13 -11 44 -39 70 -61 83
-70 298 -288 380 -386 44 -52 82 -96 85 -99 4 -3 26 -32 51 -65 24 -33 47 -62
50 -65 4 -3 15 -19 25 -35 11 -17 49 -74 87 -127 37 -53 67 -99 67 -103 0 -3
10 -21 23 -38 31 -45 46 -69 56 -94 6 -11 15 -24 21 -28 5 -3 8 -10 5 -15 -3
-5 -1 -11 4 -15 13 -7 113 -212 186 -380 62 -141 188 -514 209 -620 4 -16 9
-41 12 -55 8 -37 41 -247 49 -305 12 -99 44 -271 54 -295 9 -23 10 -21 12 20
4 85 6 115 9 130 5 27 18 -102 20 -200 5 -242 30 -119 35 170 3 192 -7 375
-30 580 -12 98 -12 116 -6 134 7 17 2 66 -13 132 -2 12 -7 37 -10 55 -3 19
-13 61 -22 94 -8 33 -17 69 -20 79 -2 11 -10 40 -19 66 -9 26 -17 55 -19 66
-7 30 -115 335 -135 379 -16 35 -30 67 -36 85 -4 12 -19 48 -37 88 -11 24 -17
46 -15 48 5 5 47 -58 47 -71 0 -4 8 -19 19 -33 22 -32 110 -203 165 -323 126
-273 174 -403 227 -605 39 -151 83 -399 93 -526 3 -38 9 -98 13 -135 4 -38 6
-197 5 -356 -1 -265 5 -332 22 -242 4 19 11 35 16 35 30 0 -12 -337 -75 -611
-31 -134 -41 -168 -146 -482 -79 -236 -104 -298 -180 -452 -28 -57 -33 -72
-17 -53 45 53 153 235 224 378 236 471 362 947 409 1540 20 244 27 274 44 175
11 -64 30 -120 31 -87 0 6 9 12 21 12 20 0 20 -5 18 -142 -4 -252 -47 -511
-155 -936 -64 -252 -91 -340 -154 -497 -90 -223 -298 -568 -467 -775 -7 -8
-26 -33 -43 -55 -113 -144 -273 -311 -565 -590 -56 -54 -290 -225 -308 -225
-5 0 -26 -12 -46 -27 -20 -16 -47 -34 -60 -41 -67 -38 -96 -54 -216 -117 -129
-68 -205 -112 -205 -119 0 -2 26 5 58 16 31 11 62 21 67 22 12 3 42 15 70 26
26 11 59 23 65 24 3 1 14 7 25 13 11 6 25 12 30 13 22 6 61 25 78 38 9 9 17
12 17 9 0 -8 177 83 217 110 15 11 48 29 73 40 47 21 114 62 140 86 8 8 35 25
59 37 25 12 51 29 59 36 7 8 20 14 28 14 8 0 14 5 14 10 0 6 12 10 26 10 14 0
23 4 19 10 -3 6 1 10 9 10 22 0 96 33 96 42 0 5 5 8 11 8 6 0 16 6 23 13 28
26 66 57 72 57 3 0 25 14 48 32 44 34 48 38 116 98 25 22 53 42 63 45 9 4 17
10 17 15 0 5 21 24 47 41 l47 33 -24 -35 c-22 -31 -91 -118 -115 -145 -17 -19
-59 -69 -75 -88 -12 -15 -5 -14 38 8 29 15 61 34 71 44 48 46 95 81 103 76 4
-3 5 -12 0 -19 -13 -25 -162 -184 -271 -289 -139 -135 -138 -134 -201 -186
-30 -25 -57 -47 -60 -50 -11 -13 -289 -199 -315 -211 -11 -5 -47 -25 -80 -44
-86 -50 -319 -163 -395 -192 -36 -14 -71 -29 -77 -35 -7 -6 -13 -7 -13 -3 0 4
-7 2 -15 -5 -8 -7 -15 -9 -15 -6 0 4 -10 1 -22 -6 -13 -6 -27 -13 -33 -14 -5
-1 -65 -21 -132 -43 -67 -22 -137 -43 -154 -46 -18 -3 -35 -8 -39 -10 -3 -2
-17 -6 -31 -8 -13 -3 -53 -12 -89 -20 -116 -28 -241 -50 -360 -62 -25 -3 -81
-9 -125 -14 -121 -13 -503 -11 -650 5 -71 7 -236 20 -365 28 -129 8 -253 17
-275 20 -22 3 -76 8 -120 11 -44 2 -129 18 -190 35 -177 48 -177 35 0 -40 342
-146 716 -238 1115 -275 79 -7 485 -8 543 -1 23 3 74 8 112 11 39 3 81 7 95
10 14 2 48 6 75 10 97 12 309 50 385 69 40 10 158 38 179 42 13 3 32 9 43 15
10 5 18 7 18 4 0 -3 16 1 35 9 19 8 35 13 35 11 0 -2 15 2 34 10 18 8 44 16
57 19 13 2 56 16 94 31 39 15 75 28 80 29 30 5 171 61 177 70 4 6 8 7 8 2 0
-5 6 -3 13 3 8 6 17 8 20 4 4 -3 7 -1 7 5 0 7 3 11 8 10 4 -1 24 6 46 15 21 9
40 17 42 17 1 0 15 5 31 12 15 6 31 12 36 13 4 2 9 4 12 5 3 1 8 3 13 5 4 1
20 7 35 13 15 7 40 15 55 18 15 4 32 10 37 15 6 4 17 4 24 0 16 -10 -121 -97
-244 -156 -108 -51 -396 -176 -415 -180 -8 -2 -33 -10 -55 -19 -40 -15 -141
-45 -160 -47 -5 -1 -17 -5 -26 -9 -14 -8 -181 -53 -239 -64 -14 -3 -43 -10
-65 -15 -22 -5 -56 -12 -75 -15 -19 -3 -46 -8 -60 -10 -86 -16 -228 -34 -315
-42 -44 -3 -89 -8 -100 -11 -41 -9 -614 -11 -725 -3 -260 21 -492 58 -743 121
-88 22 -167 37 -177 34 -25 -8 -95 11 -235 63 -247 91 -553 255 -760 406 -125
91 -185 126 -185 106 0 -6 -6 -10 -13 -10 -7 0 -22 -7 -33 -16 -10 -8 -14 -13
-7 -10 6 4 14 -2 18 -13 6 -19 72 -84 164 -161 29 -25 59 -51 67 -57 7 -7 17
-13 22 -13 6 0 12 -4 14 -8 7 -17 283 -209 399 -277 156 -92 183 -106 499
-268 140 -71 271 -138 290 -149 l35 -18 -40 0 c-22 0 -72 9 -110 20 -38 11
-85 20 -102 20 -33 0 -164 41 -212 67 -15 7 -29 13 -33 13 -24 0 -414 205
-449 236 -8 8 -19 14 -23 14 -13 0 -324 216 -346 240 -3 3 -25 21 -50 40 -25
19 -47 37 -50 40 -3 3 -34 30 -70 60 -59 50 -98 85 -168 147 -41 38 -41 32 4
-34 12 -18 23 -30 25 -28 3 2 15 -15 28 -37 l23 -41 -29 21 c-34 24 -243 231
-296 293 -100 118 -112 133 -168 209 -22 30 -53 73 -69 95 -36 48 -114 166
-143 215 -97 168 -176 322 -233 459 -25 58 -49 115 -55 126 -17 37 -119 349
-119 367 0 10 -5 18 -11 18 -5 0 -8 4 -5 9 3 4 -19 87 -48 182 -30 96 -64 215
-76 264 -12 50 -27 95 -32 100 -23 23 18 -379 57 -565 3 -14 10 -49 16 -79 6
-29 15 -65 20 -78 5 -13 11 -36 14 -51 6 -34 38 -159 60 -235 9 -32 14 -65 11
-73 -3 -7 -2 -14 2 -14 5 0 8 -10 8 -23 -1 -35 25 -127 36 -127 5 0 6 -4 3
-10 -3 -5 -3 -16 2 -22 4 -7 8 -15 9 -18 1 -6 12 -33 34 -85 9 -22 23 -56 31
-75 23 -58 141 -293 163 -325 12 -16 19 -30 17 -30 -2 0 -1 -10 3 -22 4 -13
11 -23 16 -23 4 0 10 -10 13 -22 8 -34 -71 58 -148 172 -75 109 -90 130 -98
130 -3 0 3 -17 13 -37 10 -21 16 -41 13 -46 -2 -4 1 -14 7 -22 7 -8 10 -19 8
-25 -3 -9 -67 73 -95 122 -50 89 -118 220 -133 258 -10 25 -32 77 -50 115 -17
39 -37 84 -45 100 -84 189 -186 517 -219 710 -45 260 -51 347 -50 690 0 259 3
321 23 455 47 320 106 551 222 867 27 73 49 138 49 144 0 13 -42 -46 -53 -73
-3 -10 -12 -16 -19 -13 -7 3 -18 1 -24 -3 -24 -15 -137 -256 -199 -422 -34
-92 -45 -106 -45 -57 0 20 -4 37 -9 37 -29 0 -130 -377 -171 -635 -29 -184
-30 -189 -45 -360 -8 -88 -17 -173 -19 -190 -2 -16 -7 -64 -11 -105 -3 -41 -8
-84 -9 -95 -2 -11 -7 -48 -11 -82 -11 -98 -29 -99 -54 -3 -34 125 -41 182 -46
360 l-4 165 9 -143 c13 -211 41 -375 61 -355 9 9 16 44 24 133 9 96 16 157 25
215 9 58 18 127 26 190 47 372 117 685 216 965 50 141 125 320 144 341 8 8 14
20 14 26 0 6 10 8 23 6 19 -4 28 7 66 79 24 46 65 117 91 158 25 41 49 82 52
90 3 9 40 67 82 130 42 63 102 164 133 225 192 376 497 762 816 1027 59 50
107 92 107 93 0 5 -92 -45 -121 -66 -15 -10 -30 -19 -33 -19 -13 0 -222 -145
-296 -204 -86 -70 -235 -216 -331 -326 -213 -242 -248 -285 -398 -490 -44 -60
-101 -150 -101 -160 0 -6 -4 -10 -10 -10 -5 0 -10 -5 -10 -10 0 -6 -11 -29
-26 -51 -99 -157 -211 -393 -298 -625 -69 -185 -186 -620 -186 -689 0 -10 -3
-16 -6 -12 -22 22 132 606 201 762 8 17 30 71 50 120 87 213 192 407 351 645
90 134 89 133 179 255 44 61 102 140 128 177 59 84 290 316 354 356 6 4 32 25
57 47 26 22 68 55 94 73 89 62 211 142 217 142 4 0 25 13 48 28 52 34 73 47
117 70 163 85 481 273 509 300 11 11 9 12 -15 6 -33 -7 -122 -33 -144 -42 -8
-3 -17 -6 -20 -7 -3 -1 -12 -4 -20 -7 -8 -3 -44 -16 -80 -28 -36 -12 -80 -28
-97 -36 -79 -34 -101 -43 -143 -62 -59 -26 -119 -51 -128 -53 -4 -1 -19 -10
-34 -21 -16 -11 -28 -17 -28 -13 0 3 -17 -6 -37 -20 -21 -14 -41 -25 -45 -25
-4 0 -39 -20 -78 -45 -39 -25 -73 -45 -76 -45 -3 0 -24 -13 -47 -28 -111 -75
-198 -132 -203 -132 -3 0 -11 -6 -18 -12 -34 -33 -67 -58 -76 -58 -6 0 -10 -4
-10 -10 0 -5 -6 -10 -14 -10 -8 0 -16 -3 -18 -7 -5 -13 -76 -63 -88 -63 -6 0
-8 -4 -5 -10 3 -5 2 -10 -4 -10 -31 0 -7 30 119 150 132 126 172 173 115 136
-13 -9 -31 -16 -40 -16 -9 0 -13 -4 -10 -10 3 -5 -3 -10 -14 -10 -12 0 -21 -4
-21 -9 0 -5 -16 -12 -35 -15 -19 -4 -35 -12 -35 -19 0 -7 -5 -4 -11 5 -8 15
-13 16 -32 5 -11 -6 -27 -18 -35 -24 -7 -7 -18 -13 -23 -13 -5 0 -15 -5 -22
-10 -7 -6 -28 -24 -47 -40 -19 -16 -38 -30 -41 -30 -3 0 -19 -11 -35 -25 -54
-46 -59 -50 -88 -68 -58 -38 -33 -7 70 89 58 55 117 109 130 122 12 12 27 22
31 22 5 0 15 9 23 20 8 11 20 20 26 20 7 0 14 3 16 8 2 4 39 35 83 70 44 34
86 67 92 72 7 6 30 20 50 32 21 12 54 34 74 50 20 15 41 28 47 28 5 0 16 7 23
16 7 9 22 20 34 25 29 14 61 33 79 48 9 7 16 10 16 6 0 -5 8 -1 18 7 9 8 42
29 72 45 30 16 64 35 75 41 45 26 243 116 304 139 36 14 71 29 76 33 6 5 22
11 37 14 14 2 34 9 44 15 38 21 360 117 454 135 14 2 58 12 97 20 78 17 87 18
203 36 338 51 779 48 1317 -10 124 -13 183 -13 163 1 -21 14 55 3 140 -21 107
-30 202 -52 206 -47 6 5 -95 50 -198 88 -215 79 -547 160 -775 189 -48 6 -99
13 -113 16 -148 25 -829 24 -958 -1 -11 -2 -42 -6 -69 -10 -26 -3 -70 -10 -98
-15 -27 -5 -63 -11 -80 -14 -116 -19 -346 -76 -417 -105 -16 -6 -28 -9 -28 -7
0 2 -51 -14 -112 -36 -62 -21 -120 -41 -128 -43 -8 -2 -15 -4 -15 -5 0 -1 -7
-3 -15 -5 -26 -5 -124 -46 -137 -57 -7 -6 -13 -7 -13 -3 0 4 -6 2 -13 -4 -8
-6 -45 -22 -82 -36 -38 -15 -87 -34 -110 -44 -37 -17 -74 -32 -85 -36 -3 -1
-13 -5 -23 -10 -10 -4 -20 -5 -23 -2 -6 6 58 51 141 97 33 19 62 37 63 42 2 4
7 6 12 3 5 -3 23 4 42 14 33 20 330 150 358 157 8 2 74 24 145 48 72 25 142
47 155 50 14 2 54 14 90 26 190 62 461 115 755 147 229 26 776 25 960 -1 194
-27 453 -86 575 -131 19 -8 73 -28 120 -45 47 -17 99 -37 115 -45 17 -7 57
-24 90 -38 33 -14 94 -43 135 -65 41 -22 95 -50 120 -62 66 -34 202 -117 305
-185 90 -60 246 -173 255 -184 4 -5 66 -54 105 -83 19 -14 110 -94 268 -236
86 -78 162 -142 167 -142 17 0 12 60 -6 67 -9 3 -13 12 -9 22 14 35 14 51 -2
51 -10 0 -13 6 -9 16 4 9 1 24 -6 33 -30 38 30 -16 114 -104 71 -73 87 -86 88
-67 0 12 -9 31 -19 41 -11 11 -27 36 -37 58 -10 21 -20 40 -24 43 -3 3 -18 23
-33 46 -15 22 -35 49 -45 60 -9 10 -30 37 -47 59 -65 87 -243 270 -380 390
-49 43 -92 81 -95 84 -3 3 -34 28 -69 55 -35 27 -75 60 -89 73 -14 13 -28 23
-32 23 -4 0 -19 10 -33 23 -14 12 -56 42 -92 67 -133 91 -286 212 -282 223 5
13 7 13 50 3 34 -8 35 8 2 30 -14 9 -25 21 -25 26 0 14 36 1 120 -45z m-5161
-3881 c-7 -41 -15 -73 -17 -71 -3 3 1 39 8 80 7 41 15 73 17 71 3 -2 -1 -38
-8 -80z m-22 -143 c-3 -10 -5 -2 -5 17 0 19 2 27 5 18 2 -10 2 -26 0 -35z
m-10 -85 c-2 -13 -4 -3 -4 22 0 25 2 35 4 23 2 -13 2 -33 0 -45z m-10 -120
c-2 -13 -4 -3 -4 22 0 25 2 35 4 23 2 -13 2 -33 0 -45z m78 -698 c-3 -5 -12
-10 -18 -10 -7 0 -6 4 3 10 19 12 23 12 15 0z"/>
<path d="M4300 8807 c-3 -3 -57 -8 -120 -12 -63 -4 -117 -8 -120 -10 -3 -1
-32 -6 -65 -9 -60 -7 -277 -43 -305 -51 -8 -2 -27 -6 -43 -9 -15 -3 -35 -7
-45 -10 -9 -3 -28 -7 -42 -10 -54 -10 -188 -45 -245 -64 -33 -11 -87 -27 -120
-36 -139 -39 -546 -208 -533 -222 2 -2 58 17 124 42 65 25 126 47 134 49 8 2
68 22 132 44 99 34 299 94 357 106 9 2 68 15 131 29 63 13 133 27 155 30 50 7
115 17 137 21 9 2 48 7 85 10 37 4 82 9 98 11 88 12 449 15 595 5 301 -21 514
-60 850 -155 111 -32 337 -118 485 -186 125 -57 171 -75 299 -120 241 -83 381
-149 591 -280 52 -32 95 -56 95 -51 0 5 -32 35 -71 67 -39 33 -77 64 -83 69
-6 6 -29 24 -51 40 -22 17 -42 33 -45 36 -3 4 -63 45 -135 93 -71 47 -135 91
-142 96 -7 6 -17 10 -23 10 -5 0 -10 5 -10 10 0 6 -5 10 -11 10 -6 0 -37 15
-68 34 -362 218 -812 362 -1206 387 -93 5 -222 14 -285 18 -126 9 -493 14
-500 8z"/>
<path d="M6823 8532 c41 -43 34 -56 -15 -31 l-43 22 20 -24 c11 -13 33 -34 50
-49 28 -24 61 -53 204 -185 104 -95 262 -260 329 -343 19 -23 41 -50 50 -61
10 -11 26 -32 37 -47 11 -15 25 -32 30 -38 6 -6 21 -28 34 -49 13 -21 29 -44
36 -51 19 -19 125 -182 125 -193 0 -4 15 -39 34 -78 19 -38 44 -92 56 -120 12
-27 26 -58 32 -69 5 -10 12 -30 14 -45 3 -14 9 -27 15 -29 5 -2 9 -10 9 -18 0
-23 82 -193 136 -281 68 -112 165 -302 215 -418 23 -55 43 -102 45 -104 7 -8
-7 61 -38 184 -16 66 -32 129 -34 140 -5 27 -63 205 -74 230 -5 11 -21 52 -36
90 -53 140 -143 328 -215 450 -26 44 -48 85 -50 90 -1 6 -25 41 -52 79 -27 38
-69 100 -94 139 -25 39 -51 77 -59 85 -8 7 -14 16 -14 20 0 4 -15 24 -33 44
-17 20 -40 47 -50 60 -67 88 -377 406 -457 468 -24 19 -51 42 -60 50 -30 29
-149 110 -161 110 -7 0 -1 -13 14 -28z"/>
<path d="M4349 8466 c-2 -2 -42 -6 -89 -10 -137 -10 -186 -16 -355 -47 -88
-17 -164 -31 -170 -33 -5 -1 -26 -6 -45 -10 -33 -7 -74 -19 -210 -61 -30 -9
-62 -18 -70 -20 -17 -4 -189 -66 -235 -86 -16 -7 -32 -13 -35 -14 -38 -13
-299 -142 -375 -185 -22 -13 -49 -28 -60 -34 -60 -32 -167 -110 -156 -114 6
-2 22 3 34 11 12 7 33 16 47 19 14 3 34 9 45 13 19 8 19 8 3 -12 -24 -27 -23
-30 12 -31 17 0 30 3 30 8 0 5 18 14 40 20 21 6 42 15 45 20 4 6 11 8 16 4 6
-3 19 2 30 12 10 9 22 14 26 11 3 -4 4 -9 2 -11 -6 -6 -89 -63 -149 -103 -64
-43 -220 -162 -220 -168 0 -10 53 17 127 63 78 49 91 56 193 107 30 15 62 31
70 36 8 5 25 13 38 19 46 20 118 52 146 66 16 8 35 14 43 14 7 0 13 5 13 10 0
6 6 10 13 9 6 -1 26 4 42 11 17 7 32 14 35 14 3 1 19 6 35 13 36 14 68 24 75
25 3 0 14 5 24 10 19 10 52 21 268 83 65 19 141 48 170 64 29 16 87 42 128 57
41 14 81 31 88 36 6 6 12 8 12 4 0 -3 56 14 124 38 68 24 168 52 222 61 55 10
107 22 117 27 19 10 231 37 312 40 l50 1 -60 7 c-63 6 -440 12 -446 6z m-342
-138 c-3 -8 -6 -5 -6 6 -1 11 2 17 5 13 3 -3 4 -12 1 -19z"/>
<path d="M4890 8324 c-373 -34 -659 -101 -970 -226 -731 -296 -1320 -841
-1676 -1549 -309 -618 -404 -1305 -279 -2029 82 -474 325 -1004 643 -1398 410
-511 926 -865 1554 -1067 609 -196 1357 -191 1958 13 607 206 1101 547 1498
1035 512 628 766 1446 702 2263 -34 442 -126 776 -325 1179 -371 754 -1026
1331 -1827 1610 -204 71 -421 122 -639 150 -118 16 -540 28 -639 19z m1097
-2741 c-3 -760 -6 -889 -20 -956 -29 -140 -57 -230 -102 -326 -142 -299 -376
-464 -731 -516 -88 -12 -185 -15 -498 -13 l-389 3 176 345 176 345 233 6 c308
8 392 28 489 116 47 43 82 108 106 195 15 56 17 153 20 871 l4 807 270 0 270
0 -4 -877z"/>
<path d="M8386 6981 c-4 -6 -2 -11 4 -11 6 0 9 -4 6 -9 -3 -5 1 -27 9 -50 8
-23 12 -41 10 -41 -3 0 0 -11 5 -25 5 -14 12 -36 14 -48 3 -12 12 -53 20 -92
27 -119 62 -317 71 -400 19 -170 27 -297 27 -440 1 -202 -6 -290 -32 -405 -39
-171 -60 -329 -67 -513 -5 -103 -6 -187 -3 -187 4 0 12 16 19 36 7 19 14 34
16 32 5 -5 -62 -315 -96 -443 -17 -66 -32 -129 -33 -140 0 -11 -5 -23 -10 -27
-5 -3 -10 -15 -11 -25 0 -10 -4 -23 -7 -29 -4 -5 -31 -77 -62 -160 -69 -189
-75 -203 -152 -359 -36 -71 -58 -121 -50 -110 9 11 19 25 23 30 8 9 44 65 108
165 118 185 224 401 316 643 51 135 119 376 118 418 l0 24 -12 -25 c-46 -104
-56 -124 -57 -115 0 6 13 78 30 161 74 377 99 687 80 1004 -10 157 -11 169
-41 340 -57 330 -214 848 -243 801z"/>
<path d="M1842 5819 c-132 -351 -205 -717 -219 -1089 -6 -169 8 -421 33 -570
2 -14 9 -61 15 -105 14 -103 62 -335 93 -450 51 -189 139 -431 173 -480 14
-19 14 -18 9 10 -4 17 -9 42 -11 57 -3 15 -10 40 -16 55 -6 16 -12 44 -15 63
-2 19 -7 43 -10 54 -4 11 -2 16 4 12 6 -3 24 -39 40 -79 74 -176 117 -255 97
-179 -4 15 -9 34 -10 42 -2 8 -4 16 -5 18 -2 1 -4 7 -5 12 -1 6 -3 11 -5 13
-1 1 -3 10 -5 20 -2 9 -15 56 -30 105 -39 128 -44 144 -48 172 -3 14 -10 43
-15 65 -20 76 -32 130 -36 165 -3 19 -9 60 -15 90 -31 163 -46 428 -32 565 6
56 -8 229 -28 340 -31 181 -34 469 -6 765 5 55 33 219 49 285 15 62 13 86 -2
44z m-69 -1336 c-7 -2 -19 -2 -25 0 -7 3 -2 5 12 5 14 0 19 -2 13 -5z"/>
<path d="M8956 5441 c-3 -5 -13 -44 -22 -88 -89 -446 -146 -653 -261 -948 -76
-198 -270 -584 -330 -660 -5 -5 -28 -41 -53 -80 -36 -56 -110 -159 -180 -249
-66 -84 -178 -204 -299 -321 -148 -142 -223 -216 -247 -245 -12 -14 -64 -67
-118 -119 -53 -52 -95 -95 -94 -97 8 -7 282 184 339 236 9 8 31 26 48 40 119
92 352 324 476 474 22 26 45 53 50 59 111 123 365 537 351 572 -2 7 2 16 10
19 9 4 14 15 12 28 -2 13 2 28 8 33 6 6 24 46 39 90 15 44 51 143 80 220 129
342 226 718 242 933 5 74 4 82 -10 76 -11 -4 -17 -1 -17 9 0 19 -16 31 -24 18z"/>
<path d="M2111 3658 c-1 -22 55 -197 74 -235 8 -15 15 -33 15 -40 0 -43 234
-513 248 -499 2 3 -9 34 -25 68 -17 35 -36 79 -43 98 -7 19 -19 50 -27 69 -8
18 -16 39 -18 45 -2 13 -14 44 -26 71 -4 11 -18 45 -29 75 -36 95 -43 111
-107 240 -34 69 -62 117 -62 108z"/>
<path d="M2391 3165 c-1 -18 24 -82 38 -99 7 -9 10 -16 7 -16 -4 0 0 -12 8
-27 9 -16 20 -39 26 -53 6 -14 23 -47 39 -75 15 -27 40 -72 55 -99 40 -73 147
-236 155 -236 3 0 19 -20 34 -45 16 -25 33 -45 37 -45 5 0 11 -8 14 -17 4 -10
23 -36 44 -59 20 -23 73 -81 117 -129 93 -103 136 -147 231 -233 88 -81 99
-90 159 -137 28 -22 52 -43 55 -46 12 -14 209 -148 239 -164 64 -32 144 -56
155 -45 5 5 8 11 5 13 -2 2 -92 65 -199 140 -108 75 -205 145 -216 154 -10 10
-46 40 -79 68 -115 95 -257 233 -370 360 -38 43 -80 88 -92 100 -13 12 -23 27
-23 32 0 5 -13 22 -28 39 -28 28 -162 211 -162 219 0 3 -16 25 -35 51 -19 25
-35 50 -35 55 0 6 -13 29 -28 52 -16 23 -42 70 -58 105 -16 34 -32 62 -36 62
-5 0 -8 6 -8 13 0 14 -49 76 -49 62z"/>
<path d="M2511 3018 c15 -29 152 -227 199 -288 98 -127 240 -278 314 -335 28
-21 40 -25 48 -17 9 9 9 12 0 12 -7 0 -12 7 -12 15 0 8 -4 15 -10 15 -5 0 -10
7 -10 15 0 25 16 17 81 -37 58 -49 187 -157 234 -196 96 -79 269 -198 345
-237 34 -18 35 -18 20 0 -8 10 -31 34 -50 53 l-35 34 80 -42 c44 -23 87 -48
95 -55 8 -7 20 -14 25 -16 6 -2 62 -32 125 -66 63 -34 162 -82 220 -108 58
-25 119 -52 135 -60 97 -43 380 -129 544 -165 310 -66 787 -92 1211 -65 173
11 245 16 260 20 8 2 40 7 70 10 78 9 158 23 295 50 114 24 383 99 440 124 11
5 47 20 80 32 71 27 89 40 52 37 -15 -1 -27 -5 -27 -8 0 -3 -11 -7 -26 -8 -14
-1 -33 -6 -43 -12 -10 -5 -21 -6 -25 -3 -3 3 -6 2 -6 -3 0 -5 -8 -10 -17 -10
-24 -1 -71 -11 -81 -18 -5 -3 -22 -8 -38 -10 -51 -10 -68 -14 -114 -26 -52
-14 -90 -22 -107 -23 -7 0 -13 -3 -13 -7 0 -4 -10 -6 -22 -5 -13 1 -30 -1 -38
-5 -8 -4 -35 -10 -60 -13 -48 -7 -92 -14 -127 -22 -60 -14 -327 -46 -421 -50
-59 -4 -118 -8 -130 -11 -13 -3 -94 -5 -180 -5 -185 1 -318 12 -527 46 -357
57 -753 184 -1072 343 -43 22 -123 54 -178 72 -330 108 -685 309 -1020 579
-102 82 -330 307 -410 405 -69 83 -97 108 -74 64z"/>
<path d="M8064 2827 c-12 -6 -49 -31 -82 -54 -34 -24 -64 -43 -67 -43 -6 0
-20 -10 -50 -37 -7 -7 -18 -13 -23 -13 -5 0 -15 -7 -22 -16 -8 -8 -41 -29 -74
-45 -34 -17 -65 -37 -69 -45 -4 -8 -16 -14 -25 -14 -10 0 -51 -20 -91 -45 -40
-25 -77 -45 -82 -45 -9 0 -64 -27 -200 -96 -26 -13 -54 -24 -63 -24 -9 0 -16
-4 -16 -10 0 -5 -7 -10 -15 -10 -9 0 -34 -9 -56 -19 -22 -11 -53 -23 -69 -26
-17 -4 -32 -11 -35 -16 -4 -5 -12 -9 -20 -9 -8 0 -26 -5 -42 -12 -15 -6 -30
-12 -33 -13 -36 -10 -199 -60 -245 -76 -75 -26 -294 -131 -295 -142 0 -5 9 -6
19 -2 10 3 34 8 52 10 30 3 32 2 16 -9 -10 -8 -71 -26 -135 -41 -211 -49 -277
-66 -286 -76 -12 -11 -11 -11 74 -9 87 2 68 -14 -35 -29 -44 -7 -107 -16 -140
-21 -33 -5 -89 -11 -124 -14 -35 -2 -67 -9 -71 -16 -6 -9 -9 -9 -12 0 -3 9
-30 9 -118 -1 -63 -7 -158 -15 -210 -18 l-95 -6 90 -10 c122 -13 493 -11 635
4 290 30 665 117 875 201 20 8 55 22 65 25 3 1 16 6 30 12 14 6 48 20 77 31
68 28 215 101 281 140 29 18 55 32 57 32 4 0 120 76 199 130 12 8 36 24 52 35
16 11 64 47 108 80 43 33 88 67 100 75 35 25 107 94 118 113 8 16 7 17 -11 5
-12 -7 -21 -16 -21 -20 0 -5 -9 -8 -20 -8 -11 0 -20 -4 -20 -10 0 -5 -6 -10
-14 -10 -7 0 -19 -7 -26 -15 -7 -8 -21 -15 -31 -15 -11 0 -19 -4 -19 -10 0
-10 -90 -53 -97 -46 -3 2 30 33 73 68 76 61 274 247 264 248 -3 0 -15 -6 -26
-13z"/>
<path d="M3026 2128 c10 -14 21 -24 23 -22 3 3 -6 15 -18 27 l-24 22 19 -27z"/>
<path d="M3812 1628 c5 -13 150 -90 157 -83 5 5 -41 44 -52 45 -4 0 -25 11
-45 25 -39 27 -66 33 -60 13z"/>
</g>
</svg>
